<svg width="30" height="29" viewBox="0 0 30 29" fill="none" xmlns="http://www.w3.org/2000/svg">
<rect width="30" height="29" rx="10" fill="#FACC15"/>
<path d="M21.3514 6.03936C20.5717 6.17384 19.8576 6.81263 19.6648 7.54855C19.4144 8.52355 20.0259 9.54338 21.0724 9.88706C21.3679 9.98418 21.9506 10.0178 22.2707 9.9543C22.6524 9.87959 23.0751 9.66666 23.3582 9.4089C24.22 8.62815 24.2118 7.37671 23.3459 6.5885C22.8165 6.1066 22.0983 5.90861 21.3514 6.03936Z" fill="white"/>
<path d="M13.6772 8.83735C13.5869 8.85603 12.8113 9.1474 11.9576 9.47988C10.5746 10.0141 10.3777 10.1037 10.2053 10.2532C9.799 10.608 9.85235 11.1646 10.3243 11.4672C10.4844 11.5681 10.5336 11.5793 10.7962 11.5793C11.0876 11.5756 11.1164 11.5681 12.5404 10.9891L13.9891 10.4026H14.6744H15.3557L13.8947 11.7399C12.5486 12.969 12.4173 13.096 12.2942 13.335C12.1669 13.5779 12.1587 13.6227 12.1587 13.9888C12.1628 14.3063 12.1793 14.4184 12.2531 14.5865C12.4337 14.9937 12.5486 15.0908 14.1409 16.1779L15.647 17.2052L15.6676 19.0618C15.6881 20.7353 15.6963 20.9296 15.762 21.0454C15.7989 21.1164 15.8317 21.1799 15.8317 21.1873C15.8317 21.1911 14.8468 21.1986 13.6402 21.1986C11.0302 21.1986 11.1656 21.2172 10.2135 20.7204C9.53225 20.3655 9.38451 20.3356 9.17931 20.5224C9.02337 20.6681 9.01105 20.9333 9.15469 21.0603C9.40913 21.2957 10.8537 21.9419 11.1246 21.9457C11.182 21.9457 11.1779 21.9681 11.0753 22.0988C10.706 22.5583 10.747 23.1934 11.1738 23.623C11.5185 23.9704 12.1095 24.0937 12.6061 23.9256C12.8974 23.8247 13.1847 23.5819 13.3283 23.3092C13.472 23.044 13.4761 22.5658 13.3325 22.3192C13.2791 22.2259 13.2093 22.1213 13.1724 22.0839C13.1149 22.0241 13.234 22.0204 15.6388 22.0204H18.1668L18.0478 22.1997C17.7975 22.5658 17.7893 22.9655 18.0191 23.3764C18.2612 23.7986 18.7127 24.0227 19.2544 23.9928C19.6237 23.9704 19.8987 23.8471 20.1531 23.5894C20.3788 23.3577 20.4691 23.1336 20.4691 22.7899C20.4691 22.506 20.387 22.2968 20.1983 22.069C20.108 21.9606 20.1039 21.9457 20.1695 21.9457C20.4609 21.9419 22.0204 21.2359 22.1722 21.0379C22.3118 20.8586 22.2215 20.5598 21.9999 20.4552C21.8193 20.373 21.6798 20.4141 21.0765 20.7241C20.1736 21.1911 20.2475 21.1761 18.8399 21.1911L17.6456 21.2023L17.7318 21.0417C17.8221 20.8848 17.8221 20.8474 17.8344 18.677C17.8467 16.3684 17.8426 16.3123 17.6662 16.0546C17.6087 15.9761 17.1942 15.6698 16.5992 15.2701C15.6306 14.6201 15.6224 14.6126 15.6963 14.5379C15.7373 14.4931 16.5622 13.7198 17.5307 12.8195C19.082 11.3738 19.3036 11.1497 19.4103 10.9405C19.87 10.0477 19.3406 9.03907 18.3023 8.83735C18.0355 8.78505 13.9234 8.78505 13.6772 8.83735ZM12.4296 22.5396C12.6717 22.7638 12.5404 23.1411 12.1998 23.2009C11.9207 23.2457 11.654 23.0029 11.7032 22.7488C11.7689 22.4388 12.1834 22.3192 12.4296 22.5396ZM19.4637 22.521C19.6689 22.7077 19.6401 22.9879 19.4021 23.1336C18.9835 23.3914 18.5075 22.8646 18.8645 22.5396C19.0246 22.394 19.3118 22.3865 19.4637 22.521Z" fill="white"/>
<path d="M18.3556 13.2043L17.4733 14.0075L19.5252 14.0037L21.5772 13.9963L21.7742 13.9066C21.885 13.8543 22.0163 13.7497 22.0902 13.6563C22.201 13.5106 22.2133 13.4695 22.2133 13.2043C22.2133 12.9353 22.201 12.898 22.0861 12.7486C22.0122 12.6626 21.8727 12.5506 21.7742 12.502C21.5977 12.4198 21.5525 12.4161 20.4158 12.4086L19.2379 12.4011L18.3556 13.2043Z" fill="white"/>
<path d="M10.5254 15.6138L9.6718 16.4132L8.22722 16.4244C6.8401 16.4356 6.77444 16.4394 6.61849 16.5178C6.40919 16.6187 6.17527 16.8353 6.07678 17.0109C5.96597 17.2089 5.97828 17.6572 6.09319 17.8589C6.21631 18.0681 6.51589 18.3034 6.7293 18.3557C6.85652 18.3894 7.43517 18.3968 8.77304 18.3894L10.6403 18.3782L10.8455 18.2885C10.9933 18.2213 11.3298 17.9448 12.0521 17.2948L13.0534 16.3908L12.483 15.9911C11.8838 15.569 11.6827 15.3672 11.5186 15.0236C11.4652 14.9078 11.4119 14.8106 11.3995 14.8106C11.3872 14.8106 10.9933 15.173 10.5254 15.6138Z" fill="white"/>
</svg>
